<svg width="81" height="76" viewBox="0 0 81 76" fill="none" xmlns="http://www.w3.org/2000/svg">
<path d="M68.8209 14.4965H57.2318V8.37958C57.2318 3.96131 53.6373 0.366821 49.219 0.366821H32.217C27.7987 0.366821 24.2042 3.96131 24.2042 8.37958V14.4964H12.6151C6.04182 14.4965 0.694092 19.8442 0.694092 26.4176V63.784C0.694092 70.3573 6.04182 75.705 12.6151 75.705H68.8209C75.3942 75.705 80.742 70.3573 80.742 63.784V26.4176C80.742 19.8442 75.3942 14.4965 68.8209 14.4965ZM28.8945 8.37958C28.8945 6.54755 30.385 5.05713 32.217 5.05713H49.219C51.0511 5.05713 52.5415 6.54755 52.5415 8.37958V14.4964H28.8945V8.37958ZM5.3844 63.7838V26.4176C5.3844 23.2513 7.43093 20.5558 10.27 19.5794V70.6223C7.43093 69.6456 5.3844 66.9501 5.3844 63.7838ZM14.9603 71.0147V19.1868H66.4758V71.0147H14.9603ZM76.0517 63.7838C76.0517 66.9501 74.0051 69.6456 71.1661 70.6219V19.5792C74.0051 20.5558 76.0517 23.2513 76.0517 26.4176V63.7838Z" fill="white"/>
</svg>
