<?xml version="1.0" encoding="utf-8"?>
<!-- Generator: Adobe Illustrator 25.2.1, SVG Export Plug-In . SVG Version: 6.00 Build 0)  -->
<svg version="1.1" id="Слой_1" xmlns="http://www.w3.org/2000/svg" xmlns:xlink="http://www.w3.org/1999/xlink" x="0px" y="0px"
	 viewBox="0 0 18 18" style="enable-background:new 0 0 18 18;" xml:space="preserve">
<style type="text/css">
	.st0{fill:none;}
	.st1{fill:#0096FF;}
</style>
<path class="st0" d="M0,0h18v18H0V0z"/>
<path class="st1" d="M11.2,3v5.2H3.9L3.4,8.7L3,9.1V3H11.2 M12,1.5H2.2c-0.4,0-0.8,0.3-0.8,0.8v10.5l3-3H12c0.4,0,0.8-0.3,0.8-0.8
	V2.2C12.8,1.8,12.4,1.5,12,1.5z M15.8,4.5h-1.5v6.8H4.5v1.5c0,0.4,0.3,0.8,0.8,0.8h8.2l3,3V5.2C16.5,4.8,16.2,4.5,15.8,4.5z"/>
</svg>
