<svg width="13" height="13" viewBox="0 0 13 13" fill="none" xmlns="http://www.w3.org/2000/svg">
<path d="M10.2732 0.676636H1.78882C0.819641 0.676636 0.0310059 1.46527 0.0310059 2.43445V10.9188C0.0310059 11.888 0.819641 12.6766 1.78882 12.6766H10.2732C11.2424 12.6766 12.031 11.888 12.031 10.9188V2.43445C12.031 1.46527 11.2424 0.676636 10.2732 0.676636ZM6.05444 9.81726C4.30972 9.81726 2.89038 8.39792 2.89038 6.6532C2.89038 4.90848 4.30972 3.48914 6.05444 3.48914C7.79916 3.48914 9.21851 4.90848 9.21851 6.6532C9.21851 8.39792 7.79916 9.81726 6.05444 9.81726ZM9.57007 4.19226C8.98853 4.19226 8.51538 3.71912 8.51538 3.13757C8.51538 2.55603 8.98853 2.08289 9.57007 2.08289C10.1516 2.08289 10.6248 2.55603 10.6248 3.13757C10.6248 3.71912 10.1516 4.19226 9.57007 4.19226Z" fill="#0096FF"/>
</svg>
