<?xml version="1.0" encoding="utf-8"?>
<!-- Generator: Adobe Illustrator 25.2.1, SVG Export Plug-In . SVG Version: 6.00 Build 0)  -->
<svg version="1.1" id="Слой_1" xmlns="http://www.w3.org/2000/svg" xmlns:xlink="http://www.w3.org/1999/xlink" x="0px" y="0px"
	 viewBox="0 0 18 18" style="enable-background:new 0 0 18 18;" xml:space="preserve">
<style type="text/css">
	.st0{fill:none;}
	.st1{fill:#0096FF;}
</style>
<path class="st0" d="M0,0h18v18H0V0z"/>
<path class="st1" d="M12.4,2.2c-1.3,0-2.6,0.6-3.4,1.6c-0.8-1-2.1-1.6-3.4-1.6c-2.3,0-4.1,1.8-4.1,4.1c0,2.8,2.6,5.1,6.4,8.7L9,16
	l1.1-1c3.9-3.5,6.4-5.8,6.4-8.6C16.5,4.1,14.7,2.2,12.4,2.2z M9.1,13.9L9.1,13.9H8.9C5.4,10.7,3,8.5,3,6.4c0-1.5,1.1-2.6,2.6-2.6
	c1.2,0,2.3,0.7,2.7,1.8h1.4c0.4-1,1.5-1.8,2.7-1.8c1.5,0,2.6,1.1,2.6,2.6C15,8.5,12.6,10.7,9.1,13.9z"/>
</svg>
